HIERARCHY
ROOT Hips
{
  OFFSET 5.84602e-005 68.8428 3.50346
  CHANNELS 6 Xposition Yposition Zposition Zrotation Xrotation Yrotation
  JOINT Spine
  {
    OFFSET 0 8.597 -4.6522
    CHANNELS 3 Zrotation Xrotation Yrotation
    JOINT Spine1
    {
      OFFSET 0 7.8454 0.4098
      CHANNELS 3 Zrotation Xrotation Yrotation
      JOINT Spine2
      {
        OFFSET 0 9.7078 -2.1609
        CHANNELS 3 Zrotation Xrotation Yrotation
        JOINT Neck
        {
          OFFSET 0 21.8761 -0.4549
          CHANNELS 3 Zrotation Xrotation Yrotation
          JOINT Head
          {
            OFFSET 0 12.3537 3.3602
            CHANNELS 3 Zrotation Xrotation Yrotation
            End Site
            {
              OFFSET 0.0001 18.9506 0.5657
            }
          }
        }
        JOINT LeftShoulder
        {
          OFFSET 2.2086 21.1115 7.2329
          CHANNELS 3 Zrotation Xrotation Yrotation
          JOINT LeftArm
          {
            OFFSET 13.1193 3.0282 -4.8998
            CHANNELS 3 Zrotation Xrotation Yrotation
            JOINT LeftForeArm
            {
              OFFSET 27.4081 -0.0973053 -0.2375
              CHANNELS 3 Zrotation Xrotation Yrotation
              JOINT LeftHand
              {
                OFFSET 22.8641 0.0662994 -0.1369
                CHANNELS 3 Zrotation Xrotation Yrotation
                JOINT LeftHandIndex1
                {
                  OFFSET 8.8614 0.775009 2.4612
                  CHANNELS 3 Zrotation Xrotation Yrotation
                  JOINT LeftHandIndex2
                  {
                    OFFSET 3.3146 -0.808304 0.5841
                    CHANNELS 3 Zrotation Xrotation Yrotation
                    JOINT LeftHandIndex3
                    {
                      OFFSET 2.2628 -0.552002 0.3989
                      CHANNELS 3 Zrotation Xrotation Yrotation
                      End Site
                      {
                        OFFSET 1.6102 -0.4807 0.2612
                      }
                    }
                  }
                }
                JOINT LeftHandMiddle1
                {
                  OFFSET 8.9937 0.895004 0.2143
                  CHANNELS 3 Zrotation Xrotation Yrotation
                  JOINT LeftHandMiddle2
                  {
                    OFFSET 4.0984 0.0113983 -0.0242
                    CHANNELS 3 Zrotation Xrotation Yrotation
                    JOINT LeftHandMiddle3
                    {
                      OFFSET 2.2716 0.00689697 -0.0138001
                      CHANNELS 3 Zrotation Xrotation Yrotation
                      End Site
                      {
                        OFFSET 2.0404 -0.1441 0.0027
                      }
                    }
                  }
                }
                JOINT LeftHandRing1
                {
                  OFFSET 8.5234 0.597198 -2.0164
                  CHANNELS 3 Zrotation Xrotation Yrotation
                  JOINT LeftHandRing2
                  {
                    OFFSET 3.7188 -0.188293 -0.2328
                    CHANNELS 3 Zrotation Xrotation Yrotation
                    JOINT LeftHandRing3
                    {
                      OFFSET 2.1191 -0.106598 -0.1332
                      CHANNELS 3 Zrotation Xrotation Yrotation
                      End Site
                      {
                        OFFSET 1.8737 -0.2304 -0.0886
                      }
                    }
                  }
                }
                JOINT LeftHandPinky1
                {
                  OFFSET 7.9094 -0.601089 -3.4825
                  CHANNELS 3 Zrotation Xrotation Yrotation
                  JOINT LeftHandPinky2
                  {
                    OFFSET 2.2874 -0.477005 -0.6314
                    CHANNELS 3 Zrotation Xrotation Yrotation
                    JOINT LeftHandPinky3
                    {
                      OFFSET 1.6774 -0.349396 -0.4633
                      CHANNELS 3 Zrotation Xrotation Yrotation
                      End Site
                      {
                        OFFSET 1.4888 -0.4091 -0.3416
                      }
                    }
                  }
                }
                JOINT LeftHandThumb1
                {
                  OFFSET 1.833 -1.3875 1.3896
                  CHANNELS 3 Zrotation Xrotation Yrotation
                  JOINT LeftHandThumb2
                  {
                    OFFSET 3.4129 -1.121 2.5732
                    CHANNELS 3 Zrotation Xrotation Yrotation
                    JOINT LeftHandThumb3
                    {
                      OFFSET 2.2474 -0.804199 1.6192
                      CHANNELS 3 Zrotation Xrotation Yrotation
                      End Site
                      {
                        OFFSET 1.6527 -0.5689 1.1317
                      }
                    }
                  }
                }
              }
            }
          }
        }
        JOINT RightShoulder
        {
          OFFSET -2.2086 21.1115 7.2329
          CHANNELS 3 Zrotation Xrotation Yrotation
          JOINT RightArm
          {
            OFFSET -13.1216 3.0287 -4.9007
            CHANNELS 3 Zrotation Xrotation Yrotation
            JOINT RightForeArm
            {
              OFFSET -27.4081 -0.0973053 -0.2375
              CHANNELS 3 Zrotation Xrotation Yrotation
              JOINT RightHand
              {
                OFFSET -22.8641 0.0664063 -0.1369
                CHANNELS 3 Zrotation Xrotation Yrotation
                JOINT RightHandIndex1
                {
                  OFFSET -8.8614 0.774994 2.4612
                  CHANNELS 3 Zrotation Xrotation Yrotation
                  JOINT RightHandIndex2
                  {
                    OFFSET -3.3146 -0.808304 0.5841
                    CHANNELS 3 Zrotation Xrotation Yrotation
                    JOINT RightHandIndex3
                    {
                      OFFSET -2.2628 -0.552002 0.3989
                      CHANNELS 3 Zrotation Xrotation Yrotation
                      End Site
                      {
                        OFFSET -1.6102 -0.4807 0.2612
                      }
                    }
                  }
                }
                JOINT RightHandMiddle1
                {
                  OFFSET -8.9937 0.894989 0.2143
                  CHANNELS 3 Zrotation Xrotation Yrotation
                  JOINT RightHandMiddle2
                  {
                    OFFSET -4.0984 0.0113983 -0.0242
                    CHANNELS 3 Zrotation Xrotation Yrotation
                    JOINT RightHandMiddle3
                    {
                      OFFSET -2.2716 0.00691223 -0.0138001
                      CHANNELS 3 Zrotation Xrotation Yrotation
                      End Site
                      {
                        OFFSET -2.0404 -0.1441 0.0027
                      }
                    }
                  }
                }
                JOINT RightHandRing1
                {
                  OFFSET -8.5234 0.597198 -2.0164
                  CHANNELS 3 Zrotation Xrotation Yrotation
                  JOINT RightHandRing2
                  {
                    OFFSET -3.7188 -0.188309 -0.2328
                    CHANNELS 3 Zrotation Xrotation Yrotation
                    JOINT RightHandRing3
                    {
                      OFFSET -2.1191 -0.106598 -0.1332
                      CHANNELS 3 Zrotation Xrotation Yrotation
                      End Site
                      {
                        OFFSET -1.8737 -0.2304 -0.0886
                      }
                    }
                  }
                }
                JOINT RightHandPinky1
                {
                  OFFSET -7.9094 -0.601105 -3.4825
                  CHANNELS 3 Zrotation Xrotation Yrotation
                  JOINT RightHandPinky2
                  {
                    OFFSET -2.2874 -0.477005 -0.6314
                    CHANNELS 3 Zrotation Xrotation Yrotation
                    JOINT RightHandPinky3
                    {
                      OFFSET -1.6774 -0.349396 -0.4633
                      CHANNELS 3 Zrotation Xrotation Yrotation
                      End Site
                      {
                        OFFSET -1.4888 -0.4091 -0.3416
                      }
                    }
                  }
                }
                JOINT RightHandThumb1
                {
                  OFFSET -1.833 -1.38751 1.3896
                  CHANNELS 3 Zrotation Xrotation Yrotation
                  JOINT RightHandThumb2
                  {
                    OFFSET -3.41299 -1.12099 2.5732
                    CHANNELS 3 Zrotation Xrotation Yrotation
                    JOINT RightHandThumb3
                    {
                      OFFSET -2.24741 -0.804108 1.6192
                      CHANNELS 3 Zrotation Xrotation Yrotation
                      End Site
                      {
                        OFFSET -1.6527 -0.5689 1.1317
                      }
                    }
                  }
                }
              }
            }
          }
        }
      }
    }
  }
  JOINT RightUpLeg
  {
    OFFSET -9.1966 3.8861 -0.7581
    CHANNELS 3 Zrotation Xrotation Yrotation
    JOINT RightLeg
    {
      OFFSET -0.7359 -41.0265 0
      CHANNELS 3 Zrotation Xrotation Yrotation
      JOINT RightFoot
      {
        OFFSET 0 -40.2855 0
        CHANNELS 3 Zrotation Xrotation Yrotation
        JOINT RightToeBase
        {
          OFFSET 0 -5.6122 11.7359
          CHANNELS 3 Zrotation Xrotation Yrotation
          End Site
          {
            OFFSET 0 0 7.8731
          }
        }
      }
    }
  }
  JOINT LeftUpLeg
  {
    OFFSET 9.1965 3.8864 -0.7581
    CHANNELS 3 Zrotation Xrotation Yrotation
    JOINT LeftLeg
    {
      OFFSET 0.7359 -41.0268 0
      CHANNELS 3 Zrotation Xrotation Yrotation
      JOINT LeftFoot
      {
        OFFSET 0 -40.2855 0
        CHANNELS 3 Zrotation Xrotation Yrotation
        JOINT LeftToeBase
        {
          OFFSET 0 -5.6122 11.7359
          CHANNELS 3 Zrotation Xrotation Yrotation
          End Site
          {
            OFFSET 0 0 7.8731
          }
        }
      }
    }
  }
}
MOTION
Frames:	6
Frame Time:	0.0333333
11.8056 9.60543 1.45395 0 0 -0 0.167897 -0.00141974 -1.00968 0.335744 -0.00579784 -2.01936 0.335744 -0.00579784 -2.01936 0.033247 -0.00845545 -5.99809e-005 17.4992 -3.8773 -22.1787 10.0004 -16.4829 -32.8259 -42.5836 -2.14754 -16.3467 -48.7992 8.73639 -119.685 3.48617 29.5266 -27.4299 -3.24561e-007 1.5013e-006 -7.11077e-007 5.56597e-015 3.18055e-015 1.59028e-015 -5.56597e-015 -3.18055e-015 -1.59028e-015 -3.24561e-007 1.5013e-006 -7.11077e-007 -0.0146124 -8.67869e-005 5.88988e-008 -6.36111e-015 -9.54166e-015 3.18055e-015 -3.24561e-007 1.5013e-006 -7.11077e-007 -0.0187499 -0.00117615 5.96293e-005 7.95139e-016 -3.18055e-015 1.59028e-015 -3.24561e-007 1.5013e-006 -7.11077e-007 -0.0123365 -0.00326816 0.000677869 -5.56597e-015 -3.18055e-015 -1.59028e-015 -3.24561e-007 1.5013e-006 -7.11077e-007 5.56597e-015 3.18055e-015 1.59028e-015 -5.56597e-015 -3.18055e-015 -1.59028e-015 -5.13547 -1.54988 -0.606961 -12.1683 -4.41149 14.5817 61.8293 -20.2648 170.345 -30.8092 16.2086 18.1915 1.49823e-006 -2.53547e-006 -2.23254e-006 1.95072e-006 -3.02278e-006 1.29265e-006 -2.99743e-006 -1.38865e-006 -8.09531e-007 1.49823e-006 -2.53547e-006 -2.23254e-006 0.01499 -9.42721e-005 -6.25035e-008 -3.72958e-007 -3.22599e-006 -1.08856e-006 1.49823e-006 -2.53547e-006 -2.23254e-006 0.0189562 -0.00119034 -5.86655e-005 -3.72928e-007 -3.22604e-006 -1.08844e-006 1.49823e-006 -2.53547e-006 -2.23254e-006 0.0123007 -0.00325927 -0.000680907 -3.72995e-007 -3.226e-006 -1.08863e-006 1.49823e-006 -2.53547e-006 -2.23254e-006 1.95072e-006 -3.02278e-006 1.29265e-006 -2.99743e-006 -1.38865e-006 -8.09531e-007 -33.229 -55.4637 -7.68051 -174.199 28.8804 170.214 -12.7226 34.1336 8.27093 -4.4565e-006 1.11668e-006 -3.31609e-006 -23.9291 -54.704 24.3557 174.108 29.1987 -169.764 -25.8458 18.5203 71.1932 1.59028e-015 -6.36111e-015 -2.38542e-015 
11.8056 9.60543 1.45395 0 0 -0 0.167897 -0.00141974 -1.00968 0.335744 -0.00579784 -2.01936 0.335744 -0.00579784 -2.01936 0.033247 -0.00845545 -5.99809e-005 17.3624 -3.81879 -22.0029 9.90412 -16.4316 -32.8799 -39.6846 -2.1788 -16.3731 -51.4255 9.43346 -120.262 3.39558 29.5414 -27.4645 -9.54166e-015 -3.18055e-015 3.18055e-015 -4.77083e-015 -3.18055e-015 3.18055e-015 3.18055e-015 -3.18055e-015 6.36111e-015 -9.54166e-015 -3.18055e-015 3.18055e-015 -0.0146306 -8.95792e-005 -1.3358e-006 1.19271e-014 3.18055e-015 -0 -9.54166e-015 -3.18055e-015 3.18055e-015 -0.0187776 -0.00117612 6.04238e-005 2.49848e-006 -3.47967e-007 -1.46257e-006 -9.54166e-015 -3.18055e-015 3.18055e-015 -0.01228 -0.00324945 0.000673604 -1.59028e-015 6.36111e-015 -6.36111e-015 -9.54166e-015 -3.18055e-015 3.18055e-015 -4.77083e-015 -3.18055e-015 3.18055e-015 3.18055e-015 -3.18055e-015 6.36111e-015 -5.13547 -1.54988 -0.606961 -12.1683 -4.41149 14.5817 61.8293 -20.2648 170.345 -29.265 15.1492 18.0087 -1.34529e-007 -2.39822e-007 3.26511e-007 -4.03587e-007 -7.19466e-007 9.79532e-007 -1.17713e-007 -2.09844e-007 2.85697e-007 -1.34529e-007 -2.39822e-007 3.26511e-007 0.0150005 -9.394e-005 -3.59473e-007 -1.17713e-007 -2.09807e-007 2.85725e-007 -1.34529e-007 -2.39822e-007 3.26511e-007 0.0189964 -0.00119224 -5.92026e-005 2.32207e-006 -1.91082e-006 3.04107e-008 -1.34529e-007 -2.39822e-007 3.26511e-007 0.0122488 -0.00324267 -0.000674573 -1.17704e-007 -2.09814e-007 2.85723e-007 -1.34529e-007 -2.39822e-007 3.26511e-007 -4.03587e-007 -7.19466e-007 9.79532e-007 -1.17713e-007 -2.09844e-007 2.85697e-007 -33.229 -55.4637 -7.68051 -174.199 28.8804 170.214 -12.7226 34.1336 8.27093 -4.4565e-006 1.11668e-006 -3.31609e-006 -23.9291 -54.704 24.3557 174.108 29.1987 -169.764 -25.8458 18.5203 71.1932 1.59028e-015 -6.36111e-015 -2.38542e-015 
11.8056 9.60543 1.45395 0 0 -0 0.167897 -0.00141974 -1.00968 0.335744 -0.00579784 -2.01936 0.335744 -0.00579784 -2.01936 0.033247 -0.00845545 -5.99809e-005 17.2253 -3.76068 -21.8269 9.80787 -16.3801 -32.9337 -36.7757 -2.21145 -16.3978 -54.0565 10.1575 -120.808 3.30502 29.5563 -27.4992 1.51076e-014 -6.36111e-015 3.18055e-015 5.56597e-015 -1.27222e-014 1.59028e-015 3.97569e-015 -6.36111e-015 3.18055e-015 1.51076e-014 -6.36111e-015 3.18055e-015 -0.0145948 -8.80347e-005 -2.27168e-006 2.38542e-015 0 3.18055e-015 1.51076e-014 -6.36111e-015 3.18055e-015 -0.0187666 -0.00117371 5.62898e-005 3.18055e-015 0 1.59028e-015 1.51076e-014 -6.36111e-015 3.18055e-015 -0.0122633 -0.00324735 0.000677407 2.41049e-006 -4.59698e-007 -1.56361e-006 1.51076e-014 -6.36111e-015 3.18055e-015 5.56597e-015 -1.27222e-014 1.59028e-015 3.97569e-015 -6.36111e-015 3.18055e-015 -5.13547 -1.54988 -0.606961 -12.1683 -4.41149 14.5817 61.8293 -20.2648 170.345 -27.7303 14.0845 17.8561 -3.92534e-007 -7.09146e-007 9.91377e-007 -1.63556e-007 -2.95477e-007 4.13074e-007 -2.6169e-007 -4.72764e-007 6.60918e-007 -3.92534e-007 -7.09146e-007 9.91377e-007 0.0149875 -9.13231e-005 1.41667e-006 -2.6169e-007 -4.72678e-007 6.6098e-007 -3.92534e-007 -7.09146e-007 9.91377e-007 0.0189996 -0.00119093 -5.7928e-005 -2.61684e-007 -4.72655e-007 6.60999e-007 -3.92534e-007 -7.09146e-007 9.91377e-007 0.0122925 -0.0032522 -0.000678135 -2.61669e-007 -4.72694e-007 6.60976e-007 -3.92534e-007 -7.09146e-007 9.91377e-007 -1.63556e-007 -2.95477e-007 4.13074e-007 -2.6169e-007 -4.72764e-007 6.60918e-007 -33.229 -55.4637 -7.68051 -174.199 28.8804 170.214 -12.7226 34.1336 8.27093 -4.4565e-006 1.11668e-006 -3.31609e-006 -23.9291 -54.704 24.3557 174.108 29.1987 -169.764 -25.8458 18.5203 71.1932 1.59028e-015 -6.36111e-015 -2.38542e-015 
11.8056 9.60543 1.45395 0 0 -0 0.167897 -0.00141974 -1.00968 0.335744 -0.00579784 -2.01936 0.335744 -0.00579784 -2.01936 0.033247 -0.00845545 -5.99809e-005 17.0881 -3.70297 -21.6508 9.71168 -16.3285 -32.9875 -33.8597 -2.24541 -16.421 -56.6903 10.9067 -121.322 3.21447 29.5712 -27.5338 -3.52239e-006 1.86595e-006 1.15455e-006 7.15625e-015 -3.18055e-015 7.95139e-015 2.51255e-007 6.80359e-007 1.50029e-006 -3.52239e-006 1.86595e-006 1.15455e-006 -0.0145324 -8.70903e-005 -4.15496e-006 2.51209e-007 6.80169e-007 1.50038e-006 -3.52239e-006 1.86595e-006 1.15455e-006 -0.0187948 -0.00117866 5.58209e-005 2.5121e-007 6.80109e-007 1.5004e-006 -3.52239e-006 1.86595e-006 1.15455e-006 -0.012262 -0.00324761 0.000671361 -3.27216e-006 2.54575e-006 2.65527e-006 -3.52239e-006 1.86595e-006 1.15455e-006 7.15625e-015 -3.18055e-015 7.95139e-015 2.51255e-007 6.80359e-007 1.50029e-006 -5.13547 -1.54988 -0.606961 -12.1683 -4.41149 14.5817 61.8293 -20.2648 170.345 -26.2044 13.0156 17.7334 2.04119e-006 -1.49553e-006 -9.81146e-008 6.35621e-008 1.16439e-007 -1.67162e-007 -2.10475e-006 1.37909e-006 2.65277e-007 2.04119e-006 -1.49553e-006 -9.81146e-008 0.0150064 -9.12522e-005 -5.8509e-008 -1.59028e-015 -3.18055e-015 3.18055e-015 2.04119e-006 -1.49553e-006 -9.81146e-008 0.0189805 -0.00118877 -6.10926e-005 -3.18055e-015 -3.18055e-015 6.36111e-015 2.04119e-006 -1.49553e-006 -9.81146e-008 0.0122643 -0.00324842 -0.000674237 -1.76556e-031 -3.18055e-015 -3.18055e-015 2.04119e-006 -1.49553e-006 -9.81146e-008 6.35621e-008 1.16439e-007 -1.67162e-007 -2.10475e-006 1.37909e-006 2.65277e-007 -33.229 -55.4637 -7.68051 -174.199 28.8804 170.214 -12.7226 34.1336 8.27093 -4.4565e-006 1.11668e-006 -3.31609e-006 -23.9291 -54.704 24.3557 174.108 29.1987 -169.764 -25.8458 18.5203 71.1932 1.59028e-015 -6.36111e-015 -2.38542e-015 
11.8056 9.60543 1.45395 0 0 -0 0.167897 -0.00141974 -1.00968 0.335744 -0.00579784 -2.01936 0.335744 -0.00579784 -2.01936 0.033247 -0.00845545 -5.99809e-005 16.9506 -3.64566 -21.4744 9.61556 -16.2769 -33.0411 -30.9408 -2.28054 -16.4423 -59.3242 11.6783 -121.802 3.12391 29.5862 -27.5683 -6.48259e-007 8.30634e-007 -2.16916e-006 7.95139e-016 -3.18055e-015 4.77083e-015 -6.48259e-007 8.30634e-007 -2.16916e-006 -6.48259e-007 8.30634e-007 -2.16916e-006 -0.0145841 -8.77934e-005 7.02323e-007 -6.48244e-007 8.3091e-007 -2.16906e-006 -6.48259e-007 8.30634e-007 -2.16916e-006 -0.0187248 -0.00117653 5.75049e-005 -6.4826e-007 8.3099e-007 -2.16902e-006 -6.48259e-007 8.30634e-007 -2.16916e-006 -0.0122617 -0.00324467 0.00067536 -6.48302e-007 8.30873e-007 -2.16906e-006 -6.48259e-007 8.30634e-007 -2.16916e-006 7.95139e-016 -3.18055e-015 4.77083e-015 -6.48259e-007 8.30634e-007 -2.16916e-006 -5.13547 -1.54988 -0.606961 -12.1683 -4.41149 14.5817 61.8293 -20.2648 170.345 -24.6871 11.9439 17.6405 2.3837e-006 -3.84858e-007 -1.49421e-006 3.79242e-006 -1.74462e-006 -5.08349e-007 -1.82853e-006 1.41678e-006 -2.72503e-008 2.3837e-006 -3.84858e-007 -1.49421e-006 0.015004 -8.87054e-005 -5.55041e-007 -1.8265e-006 1.41676e-006 -2.74343e-008 2.3837e-006 -3.84858e-007 -1.49421e-006 0.0189809 -0.00119148 -6.26126e-005 6.16845e-008 1.1463e-007 -1.69071e-007 2.3837e-006 -3.84858e-007 -1.49421e-006 0.0122264 -0.0032377 -0.000675721 6.16806e-008 1.1464e-007 -1.69065e-007 2.3837e-006 -3.84858e-007 -1.49421e-006 3.79242e-006 -1.74462e-006 -5.08349e-007 -1.82853e-006 1.41678e-006 -2.72503e-008 -33.229 -55.4637 -7.68051 -174.199 28.8804 170.214 -12.7226 34.1336 8.27093 -4.4565e-006 1.11668e-006 -3.31609e-006 -23.9291 -54.704 24.3557 174.108 29.1987 -169.764 -25.8458 18.5203 71.1932 1.59028e-015 -6.36111e-015 -2.38542e-015 
11.8056 9.60543 1.45395 0 0 -0 0.167897 -0.00141974 -1.00968 0.335744 -0.00579784 -2.01936 0.335744 -0.00579784 -2.01936 0.033247 -0.00845545 -5.99809e-005 16.8129 -3.58875 -21.2979 9.5195 -16.2251 -33.0946 -28.0232 -2.31668 -16.4619 -61.9553 12.4695 -122.245 3.03337 29.6012 -27.6029 -2.7111e-007 -6.57815e-007 -1.49947e-006 -9.43561e-007 1.83844e-007 -3.65676e-006 -2.7111e-007 -6.57815e-007 -1.49947e-006 -2.7111e-007 -6.57815e-007 -1.49947e-006 -0.0146024 -8.68011e-005 -2.47933e-006 -2.7106e-007 -6.57624e-007 -1.49956e-006 -2.7111e-007 -6.57815e-007 -1.49947e-006 -0.018693 -0.00116833 5.90611e-005 -2.7106e-007 -6.57566e-007 -1.49958e-006 -2.7111e-007 -6.57815e-007 -1.49947e-006 -0.0123686 -0.0032737 0.000679387 -2.71113e-007 -6.5764e-007 -1.49954e-006 -2.7111e-007 -6.57815e-007 -1.49947e-006 -9.43561e-007 1.83844e-007 -3.65676e-006 -2.7111e-007 -6.57815e-007 -1.49947e-006 -5.13547 -1.54988 -0.606961 -12.1683 -4.41149 14.5817 61.8293 -20.2648 170.345 -23.1783 10.8709 17.5768 5.9794e-008 1.12848e-007 -1.70895e-007 1.79382e-007 3.38543e-007 -5.12686e-007 1.19588e-007 2.25695e-007 -3.41791e-007 5.9794e-008 1.12848e-007 -1.70895e-007 0.0150408 -9.62628e-005 -1.22819e-006 1.99319e-006 -5.7927e-007 -3.65977e-007 5.9794e-008 1.12848e-007 -1.70895e-007 0.0189594 -0.00118945 -6.3224e-005 1.19587e-007 2.25638e-007 -3.4183e-007 5.9794e-008 1.12848e-007 -1.70895e-007 0.0122843 -0.00325129 -0.000677838 1.19578e-007 2.25659e-007 -3.41819e-007 5.9794e-008 1.12848e-007 -1.70895e-007 1.79382e-007 3.38543e-007 -5.12686e-007 1.19588e-007 2.25695e-007 -3.41791e-007 -33.229 -55.4637 -7.68051 -174.199 28.8804 170.214 -12.7226 34.1336 8.27093 -4.4565e-006 1.11668e-006 -3.31609e-006 -23.9291 -54.704 24.3557 174.108 29.1987 -169.764 -25.8458 18.5203 71.1932 1.59028e-015 -6.36111e-015 -2.38542e-015 
